# xmcd CD database file
#
# Track frame offsets:
#	150
#	17237
#	34042
#	54837
#	74712
#	91301
#	109699
#	132813
#	152936
#	168912
#	187415
#	209330
#	228743
#	260772
#
# Disc length: 4599 seconds
#
# Revision: 6
# Processed by: cddbd v1.5.2PL0 Copyright (c) Steve Scherf et al.
# Submitted via: CDex 1.51
#
DISCID=cc11f50e
DTITLE=Backstreet Boys - Backstreet's Back
DYEAR=1998
DGENRE=Pop
TTITLE0=Everybody (Backstreet's Back)
TTITLE1=As Long As You Love Me
TTITLE2=All I Have To Give
TTITLE3=Missing You
TTITLE4=That's The Way I Like It
TTITLE5=10,000 Promises
TTITLE6=Like A Child
TTITLE7=Hey Mr DJ (Keep Playn' This Song)
TTITLE8=Set Adrift On Memory Bliss
TTITLE9=That's What She Said
TTITLE10=If You Want It To Be Good Girl (Get Yourself A Bad Boy)
TTITLE11=All I Have To Give (Part II - The Conversation Mix)
TTITLE12=If I Don't Have You
TTITLE13=?????
EXTD=YEAR: 1998
EXTT0=
EXTT1=
EXTT2=
EXTT3=
EXTT4=
EXTT5=
EXTT6=
EXTT7=
EXTT8=
EXTT9=
EXTT10=
EXTT11=
EXTT12=
EXTT13=
PLAYORDER=
